<svg xmlns="http://www.w3.org/2000/svg" id="Calque_1" data-name="Calque 1" viewBox="0 0 746.06 579.44" width="746.06" height="579.44"><metadata><rdf:RDF xmlns:rdf="http://www.w3.org/1999/02/22-rdf-syntax-ns#" xmlns:dc="http://purl.org/dc/elements/1.1/"><rdf:Description><dc:creator>RealFaviconGenerator</dc:creator><dc:source>https://realfavicongenerator.net</dc:source></rdf:Description></rdf:RDF></metadata><defs>
    <style>
      .cls-1 {
        fill: #fb8c6b;
      }

      .cls-2 {
        fill: #fd8462;
      }

      .cls-3 {
        fill: #afe9fb;
      }

      .cls-4 {
        fill: #fdbb9e;
      }

      .cls-5 {
        fill: #70cbf7;
      }

      .cls-6 {
        fill: #68bce3;
      }

      .cls-7 {
        fill: #5aabd7;
      }

      .cls-8 {
        fill: #d16249;
      }

      .cls-9 {
        fill: #4b8eb8;
      }

      .cls-10 {
        fill: none;
        stroke: #df7458;
        stroke-linecap: round;
        stroke-linejoin: round;
        stroke-width: .69px;
      }
    </style>
  </defs><g id="Objet_génératif" data-name="Objet génératif">
    <g>
      <path class="cls-8" d="M728.11,370.92c-5.6,59.56-9.8,116.37-16.93,174.67-1.88,15.36-19.83,33.64-36.44,33.65l-601.19.2c-22.7,0-38.79-20.08-40.7-41.37L.12,173.97c-1.77-19.67,17.1-37.33,34.06-37.87l22.45-.71.11-94.77C56.77,18.13,75.64.14,96.67.12L262.03,0c14.17-.01,26.54,7.28,33.93,19.26,9.01,14.62,11.35,40.75,26.74,40.76l325.42.22c19.94.01,37.32,15.66,39.84,34.57,1.85,13.85-.25,27.15.84,40.81,5.42.91,11.43.14,16.83.23,25.34.42,42.52,22.09,40.22,46.44l-17.75,188.63Z"></path>
      <path class="cls-2" d="M683.65,100.59c.63,12.39.35,22.93-.44,35.25H62.43c-2.14-10.17.36-18.51-.69-25.16l-.02-70.28c0-16.66,13.42-34.69,31.72-34.74l171.94-.46c12.59-.03,22.74,9.18,27.16,19.36l11.61,26.79c2.96,6.83,9.99,13.5,19.04,13.51l324.91.41c19.54.02,34.56,16.08,35.55,35.32Z"></path>
      <path class="cls-4" d="M728.19,149.8c-3.31-.19-6.5-2.29-10.28-2.27l-53.05.4-29.03-.31-42.57.37-550.36.74c-19.05.03-31.69,21.49-30.17,38.18l25.42,277.92,6.84,76.42c1.45,16.2,4.34,12.94,8.01,24.63-8.98-6.5-13.91-16-14.93-27.12L5.03,178.07c-1.67-18.26,12.96-37.32,32.23-37.33l669.17-.24c9.61,0,15.65,4.66,21.77,9.3Z"></path>
      <g>
        <path class="cls-1" d="M728.19,149.8c9.79,7.43,13.22,18.84,12.03,31.71l-20.73,224.65c-.53,5.8-.6,10.66-1.11,15.5l-1.18,11.34-8.74,97.7c-1.52,16.98-10.86,42.61-32.25,42.63l-605.05.53c-7.52-2.21-13.5-3.11-18.15-7.99-3.67-11.69-6.56-8.43-8.01-24.63l-6.84-76.42L12.74,186.91c-1.53-16.68,11.12-38.15,30.17-38.18l550.36-.74,42.57-.37,29.03.31,53.05-.4c3.78-.03,6.97,2.08,10.28,2.27Z"></path>
        <g>
          <path class="cls-9" d="M517.56,306.45c.77,4.04-.73,8.68-.08,13.52-11.17,15.25-27.18,25.57-39.41,40.28-8.82,5.86-15.68,14.63-23.82,22.14-.07,4.12.24,6.82.82,10.21l12.92,75.56c.84,4.94.25,9.54-2.84,12.73-2.15,2.22-7.35,5.14-11.86,2.79l-79.39-41.41c-2.29.85-3.83.84-5.62,1.77l-74.55,38.8c-4.39,2.28-8.46.38-11.89-1.45-3.84-2.04-4.86-7.19-4.05-11.98l14.52-85.78-60.77-58.83c-3.76-3.64-3.14-8.18-3.17-13.14-.01-3.93.07-12.39,5.54-13.17l84.73-12.13c2.91-.42,5.76-1.26,7.21-4.16l37.99-75.75c1.9-3.78,5.84-5.08,9.13-5.17,7.14-.19,9.31,7.17,14.12,12.65,3.04,2.18,4.07,5.9,5.93,9.63l29.42,58.82c2.2,4.41,8.47,4.34,12.98,5l75.47,11.15c2.66.39,6.19,5.34,6.68,7.91Z"></path>
          <path class="cls-5" d="M376.73,209.19c4.79,7.82,8.81,16.09,13.33,25.09l27.72,55.19,89.67,13.13c2.2.32,3.38,1.87,3.64,3.09.32,1.49-.51,3.14-1.9,4.49l-57.58,55.99c-3.24,3.15-5.24,6.26-4.35,11.21l14.2,79.65c.58,3.25,1.49,5.32-.68,8.14-1.37,1.78-4.48,2.28-7.45.78l-56.27-28.43c-7.88-3.98-15.13-10.16-24.55-12.9l-57.5,28.76c.27-.65-.8-1.04-.59-1.38.17-.28.95-1.27.25-1.78l-24.56,13.02c-2.18-3.12-1.08-6.27-.46-9.59l13.84-74.18c1.19-6.37.56-11.08-4.47-15.82l-58.4-55.02c-2.17-2.17,4.46-2.53,6.05-2.74l79.61-10.58c2.52-.33,5.48-1.94,6.62-4.18,13.68-26.93,26.38-53.89,38.28-81.69,2.18-.81,3.86-.21,5.56-.23Z"></path>
          <path class="cls-3" d="M376.73,209.19c-1.7.03-3.37-.57-5.56.23-11.9,27.8-24.6,54.76-38.28,81.69-1.14,2.24-4.1,3.85-6.62,4.18l-79.61,10.58c-1.59.21-8.21.58-6.05,2.74l58.4,55.02c5.03,4.74,5.66,9.45,4.47,15.82l-13.84,74.18c-.62,3.33-1.72,6.48.46,9.59l24.56-13.02c.7.52-.07,1.5-.25,1.78-.21.34.86.72.59,1.38-8.28,4.14-16.07,9.93-25.21,12.84-1.79.44-3.75-.92-5.37-.21-.59-.6-.85-4.12-.35-6.97,3.49-19.96,10.73-58.55,13.52-78.55.36-2.55,3.03-7.78.06-10.63l-63.81-61.31c.06-1.67-.69-3.12.69-4.52,1.03-1.03,2.05-1.32,4.07-1.61l83.24-11.81c4.47-.63,6.31-1.6,8.23-5.47l38.51-77.7c1.4-1.09,4.98-1.78,6.05-1.17,1.17.66,1.32,1.66,2.11,2.94Z"></path>
          <path class="cls-7" d="M397.05,437.51l-16.84.99c-2.87.17-4.8-1.64-7.9-2.01l-79.54,40.99c-2.52,1.3-5.92,2.74-8.37-.35-2.31-2.92-1.99-8.59.02-11.13,1.62-.71,3.58.65,5.37.21,9.14-2.91,16.93-8.69,25.21-12.84l57.5-28.76c9.42,2.74,16.66,8.92,24.55,12.9Z"></path>
          <path class="cls-6" d="M297.58,380.47c-1.67-.2-2.86-1.37-4.31-2.77l-58.8-56.54c-2.83-3.04-.75-9.37-.64-12.63l63.81,61.31c2.97,2.85.3,8.08-.06,10.63Z"></path>
        </g>
      </g>
    </g>
    <path class="cls-10" d="M387.08,213.94c3.04,2.18,4.07,5.9,5.93,9.63l29.42,58.82c.17,1.08.62,1.75,1.8,1.35"></path>
  </g></svg>